<svg width="50" height="50" viewBox="0 0 50 50" fill="none" xmlns="http://www.w3.org/2000/svg">
<circle cx="25" cy="25" r="24.5" fill="#D27F25" stroke="black"/>
<path d="M25 29.2998C30.6866 29.2998 33.7595 30.8501 35.4277 32.4883C37.1022 34.1328 37.4328 35.9364 37.498 36.5732C37.5053 36.6437 37.4874 36.6802 37.4678 36.7031C36.9814 37.2714 34.4676 39.5 25 39.5C15.5324 39.5 13.0188 37.2715 12.5322 36.7031H12.5312C12.5119 36.6803 12.4948 36.6436 12.502 36.5732C12.5672 35.9364 12.8977 34.1328 14.5723 32.4883C16.2405 30.8501 19.3134 29.2998 25 29.2998ZM25 8.5C27.198 8.5 28.8818 9.20693 30.0215 10.4678C31.1674 11.7357 31.8202 13.6272 31.8203 16.0996C31.8203 18.558 31.0649 20.8257 29.8291 22.4668C28.5952 24.1052 26.9021 25.0996 25 25.0996C23.0978 25.0996 21.4048 24.1052 20.1709 22.4668C18.9351 20.8257 18.1797 18.558 18.1797 16.0996C18.1798 13.6272 18.8326 11.7357 19.9785 10.4678C21.1182 9.20694 22.802 8.5 25 8.5Z" fill="white" stroke="black"/>
</svg>
