<svg width="35" height="50" viewBox="0 0 35 50" fill="none" xmlns="http://www.w3.org/2000/svg">
<path d="M27.5 0H7.50002C5.51089 0 3.60324 0.790017 2.19672 2.19626C0.790194 3.6025 1.97333e-05 5.50977 1.97333e-05 7.4985V47.4905C-0.00173027 47.9309 0.112944 48.3641 0.332469 48.746C0.551969 49.1277 0.868494 49.4449 1.25002 49.6651C1.63007 49.8845 2.06117 50 2.50002 50C2.93884 50 3.36997 49.8845 3.75002 49.6651L17.5 41.7167L31.25 49.6651C31.631 49.881 32.062 49.993 32.5 49.99C32.938 49.993 33.369 49.881 33.75 49.6651C34.1315 49.4449 34.448 49.1277 34.6675 48.746C34.887 48.3641 35.0017 47.9309 35 47.4905V7.4985C35 5.50977 34.2097 3.6025 32.8032 2.19626C31.3967 0.790017 29.4892 0 27.5 0ZM30 43.1664L18.75 36.6677C18.37 36.4482 17.9387 36.3327 17.5 36.3327C17.0612 36.3327 16.63 36.4482 16.25 36.6677L5.00002 43.1664V7.4985C5.00002 6.83558 5.26339 6.19984 5.73224 5.73108C6.20109 5.26235 6.83697 4.999 7.50002 4.999H27.5C28.163 4.999 28.799 5.26235 29.2677 5.73108C29.7367 6.19984 30 6.83558 30 7.4985V43.1664Z" fill="#FFC98F"/>
</svg>
