<svg width="50" height="50" viewBox="0 0 50 50" fill="none" xmlns="http://www.w3.org/2000/svg">
<path d="M48.8368 1.16318C48.0918 0.418398 47.0815 0 46.028 0C44.9746 0 43.9643 0.418398 43.2193 1.16318L25 19.3825L6.78073 1.16318C6.03572 0.418398 5.0254 0 3.97195 0C2.91851 0 1.90819 0.418398 1.16318 1.16318C0.418398 1.90819 0 2.91851 0 3.97195C0 5.0254 0.418398 6.03572 1.16318 6.78073L19.3825 25L1.16318 43.2193C0.418398 43.9643 0 44.9746 0 46.028C0 47.0815 0.418398 48.0918 1.16318 48.8368C1.90819 49.5816 2.91851 50 3.97195 50C5.0254 50 6.03572 49.5816 6.78073 48.8368L25 30.6175L43.2193 48.8368C43.9643 49.5816 44.9746 50 46.028 50C47.0815 50 48.0918 49.5816 48.8368 48.8368C49.5816 48.0918 50 47.0815 50 46.028C50 44.9746 49.5816 43.9643 48.8368 43.2193L30.6175 25L48.8368 6.78073C49.5816 6.03572 50 5.0254 50 3.97195C50 2.91851 49.5816 1.90819 48.8368 1.16318Z" fill="#4C423D"/>
</svg>
