<svg width="50" height="50" viewBox="0 0 50 50" fill="none" xmlns="http://www.w3.org/2000/svg">
<g clip-path="url(#clip0_53_367)">
<path d="M28.8439 35.9728L22.048 42.7686C20.0749 44.6889 17.4251 45.7552 14.6719 45.7368C11.9186 45.7183 9.28333 44.6166 7.33617 42.67C5.389 40.7234 4.28655 38.0884 4.26732 35.3352C4.2481 32.582 5.31365 29.9318 7.23344 27.9582L14.0293 21.1562C14.4199 20.7652 14.6393 20.2351 14.6391 19.6825C14.6389 19.1299 14.4191 18.5999 14.0282 18.2093C13.6373 17.8186 13.1072 17.5993 12.5546 17.5995C12.0019 17.5997 11.472 17.8194 11.0814 18.2103L4.2876 25.0124C1.54234 27.759 0.000610597 31.4837 0.00158738 35.3671C0.00256416 39.2505 1.54616 42.9744 4.29281 45.7196C7.03946 48.4649 10.7642 50.0066 14.6475 50.0057C18.5309 50.0047 22.2548 48.4611 25.0001 45.7144L31.7959 38.9186C32.1754 38.5257 32.3854 37.9994 32.3807 37.4532C32.3759 36.907 32.1568 36.3844 31.7706 35.9982C31.3843 35.6119 30.8618 35.3928 30.3155 35.3881C29.7693 35.3833 29.243 35.5933 28.8501 35.9728H28.8439Z" fill="white"/>
<path d="M45.7169 4.29463C44.3612 2.92966 42.7482 1.8473 40.9712 1.11025C39.1942 0.373203 37.2886 -0.00386934 35.3648 0.000882939C33.442 -0.00422483 31.5373 0.371879 29.7608 1.10745C27.9843 1.84302 26.3712 2.92346 25.0148 4.2863L18.2086 11.0842C17.8176 11.4749 17.5979 12.0048 17.5977 12.5574C17.5975 13.1101 17.8169 13.6402 18.2075 14.0311C18.5982 14.422 19.1281 14.6417 19.6807 14.6419C20.2334 14.6421 20.7635 14.4228 21.1544 14.0321L27.9565 7.2363C28.9264 6.26057 30.0802 5.48693 31.3511 4.96017C32.6221 4.43342 33.9849 4.16401 35.3606 4.16755C37.432 4.16824 39.4567 4.78303 41.1787 5.93422C42.9008 7.0854 44.2428 8.72129 45.0353 10.6351C45.8277 12.5489 46.035 14.6547 45.6309 16.6863C45.2267 18.7178 44.2294 20.584 42.7648 22.0488L35.969 28.8446C35.5781 29.2356 35.3584 29.7658 35.3584 30.3186C35.3584 30.8714 35.5781 31.4016 35.969 31.7926C36.3599 32.1835 36.8901 32.4031 37.4429 32.4031C37.9958 32.4031 38.526 32.1835 38.9169 31.7926L45.7127 25.0009C48.4545 22.2532 49.9946 18.5303 49.9954 14.6486C49.9962 10.767 48.4575 7.04345 45.7169 4.29463Z" fill="white"/>
<path d="M29.7775 17.2773L17.2775 29.7773C17.0785 29.9695 16.9198 30.1993 16.8106 30.4535C16.7014 30.7077 16.644 30.9811 16.6416 31.2577C16.6392 31.5343 16.6919 31.8086 16.7966 32.0647C16.9014 32.3207 17.0561 32.5533 17.2517 32.7489C17.4473 32.9445 17.6799 33.0992 17.9359 33.204C18.192 33.3087 18.4663 33.3614 18.7429 33.359C19.0195 33.3566 19.2929 33.2992 19.5471 33.19C19.8013 33.0808 20.0311 32.9221 20.2233 32.7231L32.7233 20.2231C33.1028 19.8302 33.3128 19.304 33.3081 18.7577C33.3033 18.2115 33.0842 17.6889 32.698 17.3027C32.3117 16.9164 31.7892 16.6973 31.2429 16.6926C30.6967 16.6878 30.1704 16.8978 29.7775 17.2773Z" fill="white"/>
</g>
<defs>
<clipPath id="clip0_53_367">
<rect width="50" height="50" fill="white"/>
</clipPath>
</defs>
</svg>
