<svg width="177" height="50" viewBox="0 0 177 50" fill="none" xmlns="http://www.w3.org/2000/svg">
<path d="M25.37 9.38173C26.4511 7.44708 29.4086 8.44545 29.096 10.6395L29.0595 10.8951C28.8719 12.2114 29.9972 13.341 31.3143 13.1583L41.0606 11.8067C43.1807 11.5127 44.2187 14.3051 42.4213 15.4673L35.6573 19.8408C34.3027 20.7166 34.489 22.7533 35.98 23.3689L40.0876 25.0648C41.9149 25.8192 41.6565 28.4848 39.7183 28.8742L37.5491 29.31C36.3738 29.5462 35.6688 30.7561 36.0429 31.8951L36.7 33.8951C37.2641 35.6123 35.4418 37.1375 33.8508 36.2798L30.8893 34.6832C29.2615 33.8055 27.4168 35.4178 28.0685 37.1484L29.6753 41.4153C30.4323 43.4254 27.9202 45.0527 26.3952 43.5401L20.3493 37.5435C19.7134 36.9127 18.7357 36.7817 17.9561 37.2227L11.2337 41.0259C9.38091 42.0741 7.39062 39.8867 8.60868 38.1408L12.3904 32.7204C12.9896 31.8616 12.8249 30.686 12.0128 30.0249L4.36225 23.7971C2.90267 22.6089 3.74283 20.246 5.62488 20.246H10.8874C11.8817 20.246 12.725 19.5156 12.8669 18.5315L13.6365 13.1945C13.9348 11.1262 16.8057 10.8434 17.5018 12.8138L18.3331 15.1667C18.9063 16.7894 21.1253 16.9784 21.9648 15.476L25.37 9.38173Z" fill="#FF8400"/>
<path d="M67.6003 17.5C68.7203 17.5 69.687 17.7 70.5003 18.1C71.327 18.5 71.9603 19.06 72.4003 19.78C72.8536 20.4867 73.0803 21.3067 73.0803 22.24C73.0803 23.1733 72.8536 24 72.4003 24.72C71.9603 25.4267 71.327 25.98 70.5003 26.38C69.687 26.78 68.7203 26.98 67.6003 26.98H60.8603V24.7H67.5003C68.407 24.7 69.1136 24.48 69.6203 24.04C70.1403 23.6 70.4003 23 70.4003 22.24C70.4003 21.48 70.1403 20.88 69.6203 20.44C69.1136 20 68.407 19.78 67.5003 19.78H61.1203L62.3003 18.46V32.5H59.6603V17.5H67.6003ZM74.9462 17.1H77.5462V32.5H74.9462V17.1ZM90.8578 32.5L90.4178 28.3L90.9378 26.84L90.4178 25.4L90.8578 21.18H93.5378L92.9378 26.84L93.5378 32.5H90.8578ZM91.6578 26.84C91.4045 28.0267 90.9845 29.0667 90.3978 29.96C89.8111 30.8533 89.0845 31.5467 88.2178 32.04C87.3645 32.5333 86.4111 32.78 85.3578 32.78C84.2511 32.78 83.2711 32.5333 82.4178 32.04C81.5645 31.5333 80.8978 30.8333 80.4178 29.94C79.9378 29.0467 79.6978 28.0133 79.6978 26.84C79.6978 25.6533 79.9378 24.62 80.4178 23.74C80.8978 22.8467 81.5645 22.1533 82.4178 21.66C83.2711 21.1533 84.2511 20.9 85.3578 20.9C86.4111 20.9 87.3645 21.1467 88.2178 21.64C89.0845 22.1333 89.8111 22.8267 90.3978 23.72C90.9978 24.6 91.4178 25.64 91.6578 26.84ZM82.3378 26.84C82.3378 27.6 82.4911 28.2733 82.7978 28.86C83.1178 29.4333 83.5511 29.8867 84.0978 30.22C84.6445 30.54 85.2711 30.7 85.9778 30.7C86.6978 30.7 87.3645 30.54 87.9778 30.22C88.5911 29.8867 89.1311 29.4333 89.5978 28.86C90.0778 28.2733 90.4578 27.6 90.7378 26.84C90.4578 26.08 90.0778 25.4133 89.5978 24.84C89.1311 24.2533 88.5911 23.8 87.9778 23.48C87.3645 23.1467 86.6978 22.98 85.9778 22.98C85.2711 22.98 84.6445 23.1467 84.0978 23.48C83.5511 23.8 83.1178 24.2533 82.7978 24.84C82.4911 25.4133 82.3378 26.08 82.3378 26.84ZM108.54 28.04C108.407 28.9733 108.04 29.8 107.44 30.52C106.84 31.2267 106.073 31.78 105.14 32.18C104.207 32.58 103.167 32.78 102.02 32.78C100.713 32.78 99.56 32.5333 98.56 32.04C97.5733 31.5333 96.8 30.8333 96.24 29.94C95.68 29.0467 95.4 28.0133 95.4 26.84C95.4 25.6667 95.68 24.6333 96.24 23.74C96.8 22.8467 97.5733 22.1533 98.56 21.66C99.56 21.1533 100.713 20.9 102.02 20.9C103.167 20.9 104.207 21.1 105.14 21.5C106.073 21.9 106.84 22.46 107.44 23.18C108.04 23.8867 108.407 24.7133 108.54 25.66H105.92C105.733 24.8067 105.287 24.14 104.58 23.66C103.873 23.18 103.02 22.94 102.02 22.94C101.22 22.94 100.52 23.1 99.92 23.42C99.32 23.7267 98.8533 24.1733 98.52 24.76C98.2 25.3333 98.04 26.0267 98.04 26.84C98.04 27.64 98.2 28.3333 98.52 28.92C98.8533 29.5067 99.32 29.96 99.92 30.28C100.52 30.5867 101.22 30.74 102.02 30.74C103.033 30.74 103.893 30.4933 104.6 30C105.307 29.5067 105.747 28.8533 105.92 28.04H108.54ZM116.693 32.78C115.373 32.78 114.199 32.5333 113.173 32.04C112.146 31.5333 111.339 30.8333 110.753 29.94C110.166 29.0467 109.873 28.0067 109.873 26.82C109.873 25.6467 110.146 24.62 110.693 23.74C111.253 22.8467 112.019 22.1533 112.993 21.66C113.979 21.1533 115.106 20.9 116.373 20.9C117.639 20.9 118.733 21.1867 119.653 21.76C120.586 22.32 121.306 23.1133 121.813 24.14C122.319 25.1667 122.573 26.3733 122.573 27.76H111.913V25.78H121.273L119.973 26.52C119.933 25.7733 119.753 25.1333 119.433 24.6C119.126 24.0667 118.706 23.66 118.173 23.38C117.653 23.0867 117.033 22.94 116.313 22.94C115.553 22.94 114.886 23.0933 114.313 23.4C113.753 23.7067 113.313 24.14 112.993 24.7C112.673 25.2467 112.513 25.9 112.513 26.66C112.513 27.5 112.699 28.2267 113.073 28.84C113.459 29.4533 113.999 29.9267 114.693 30.26C115.399 30.58 116.233 30.74 117.193 30.74C118.059 30.74 118.946 30.6067 119.853 30.34C120.759 30.06 121.559 29.6733 122.253 29.18V31.06C121.559 31.5933 120.713 32.0133 119.713 32.32C118.726 32.6267 117.719 32.78 116.693 32.78ZM127.535 17.5V31.32L126.355 30.18H137.655V32.5H124.895V17.5H127.535ZM139.36 21.1L140.66 21.34L141.96 21.1V32.5H139.36V21.1ZM140.66 19.68C140.167 19.68 139.76 19.5467 139.44 19.28C139.12 19 138.96 18.64 138.96 18.2C138.96 17.76 139.12 17.4067 139.44 17.14C139.76 16.86 140.167 16.72 140.66 16.72C141.167 16.72 141.574 16.86 141.88 17.14C142.2 17.4067 142.36 17.76 142.36 18.2C142.36 18.64 142.2 19 141.88 19.28C141.574 19.5467 141.167 19.68 140.66 19.68ZM156.432 29.06C156.432 29.82 156.219 30.48 155.792 31.04C155.365 31.6 154.719 32.0333 153.852 32.34C152.985 32.6333 151.899 32.78 150.592 32.78C149.245 32.78 148.079 32.6133 147.092 32.28C146.105 31.9333 145.339 31.4533 144.792 30.84C144.259 30.2133 143.972 29.4933 143.932 28.68H146.572C146.652 29.1067 146.865 29.4867 147.212 29.82C147.572 30.14 148.039 30.3867 148.612 30.56C149.199 30.7333 149.865 30.82 150.612 30.82C151.692 30.82 152.505 30.6933 153.052 30.44C153.599 30.1733 153.872 29.7733 153.872 29.24C153.872 28.88 153.685 28.6067 153.312 28.42C152.952 28.2333 152.265 28.0933 151.252 28L149.032 27.8C147.832 27.6933 146.885 27.48 146.192 27.16C145.499 26.8267 145.005 26.4267 144.712 25.96C144.419 25.48 144.272 24.9733 144.272 24.44C144.272 23.6667 144.512 23.02 144.992 22.5C145.472 21.98 146.139 21.5867 146.992 21.32C147.845 21.04 148.839 20.9 149.972 20.9C151.145 20.9 152.192 21.0667 153.112 21.4C154.032 21.72 154.765 22.1733 155.312 22.76C155.859 23.3333 156.165 24 156.232 24.76H153.592C153.539 24.4533 153.379 24.16 153.112 23.88C152.859 23.5867 152.465 23.3467 151.932 23.16C151.412 22.96 150.712 22.86 149.832 22.86C148.899 22.86 148.165 22.98 147.632 23.22C147.112 23.46 146.852 23.8133 146.852 24.28C146.852 24.5733 147.012 24.8267 147.332 25.04C147.652 25.24 148.245 25.38 149.112 25.46L151.972 25.72C153.119 25.8267 154.012 26.0333 154.652 26.34C155.305 26.6333 155.765 27.0133 156.032 27.48C156.299 27.9467 156.432 28.4733 156.432 29.06ZM157.162 23.18V22L159.582 21.38L160.662 18.22H162.182V21.18H167.442V23.18H162.182V28.08C162.182 29.0267 162.382 29.6933 162.782 30.08C163.196 30.4533 163.862 30.64 164.782 30.64C165.369 30.64 165.889 30.58 166.342 30.46C166.796 30.3267 167.229 30.14 167.642 29.9V32.04C167.296 32.2133 166.802 32.38 166.162 32.54C165.536 32.7 164.889 32.78 164.222 32.78C163.116 32.78 162.222 32.6 161.542 32.24C160.862 31.8667 160.362 31.36 160.042 30.72C159.736 30.0667 159.582 29.32 159.582 28.48V23.18H157.162Z" fill="white"/>
</svg>
