<svg width="42" height="50" viewBox="0 0 42 50" fill="none" xmlns="http://www.w3.org/2000/svg">
<path fill-rule="evenodd" clip-rule="evenodd" d="M32.8252 12.6563C32.8252 20.6448 27.7572 27.5 21 27.5C14.2427 27.5 9.17474 20.6448 9.17474 12.6563C9.17474 4.66785 13.5361 0 21 0C28.4638 0 32.8252 4.66785 32.8252 12.6563ZM0.24555 45.3573C1.25826 46.5015 5.61298 50 21 50C36.387 50 40.7418 46.5015 41.7543 45.3573C41.9514 45.1348 42.0239 44.855 41.9932 44.5655C41.7593 42.359 39.6702 32.5 21 32.5C2.32979 32.5 0.240584 42.359 0.00678562 44.5655C-0.0239075 44.855 0.0484627 45.1348 0.24555 45.3573Z" fill="white"/>
</svg>
