<svg width="50" height="40" viewBox="0 0 50 40" fill="none" xmlns="http://www.w3.org/2000/svg">
<path fill-rule="evenodd" clip-rule="evenodd" d="M10.7323 0.732236C11.7086 -0.244079 13.2915 -0.244079 14.2678 0.732236L24.2678 10.7322C25.244 11.7085 25.244 13.2915 24.2678 14.2678C23.2915 15.244 21.7086 15.244 20.7323 14.2678L15 8.53555V37.5C15 38.8809 13.8807 40 12.5 40C11.1193 40 10 38.8809 10 37.5V8.53555L4.26778 14.2678C3.29147 15.244 1.70855 15.244 0.732237 14.2678C-0.244079 13.2915 -0.244079 11.7085 0.732237 10.7322L10.7323 0.732236ZM37.5001 7.28028e-06C38.8809 7.28028e-06 40.0001 1.11929 40.0001 2.50001V31.4646L45.7324 25.7323C46.7086 24.756 48.2915 24.756 49.2678 25.7323C50.2441 26.7086 50.2441 28.2914 49.2678 29.2677L39.2678 39.2677C38.2915 40.244 36.7086 40.244 35.7323 39.2677L25.7323 29.2677C24.756 28.2914 24.756 26.7086 25.7323 25.7323C26.7086 24.756 28.2915 24.756 29.2678 25.7323L35.0001 31.4646V2.50001C35.0001 1.11929 36.1195 7.28028e-06 37.5001 7.28028e-06Z" fill="#D27F25"/>
</svg>
